# Wavefront Obj file
# 
# verts: 116 uv-s: 218
mtllib LEaves.mtl

g Group32764

v -1.531029 3.446848 0.033798
v -2.158016 3.105467 0.178195
v -3.101899 2.536302 0.233347
v -3.842266 1.982652 0.199303
v -3.534212 1.642583 0.320033
v -3.170349 1.340873 0.156180
v -4.012771 1.493945 0.085515
v -3.991947 1.293361 0.139302
v -3.867633 1.168422 0.037423
v -4.535404 0.945244 -0.209697
v -4.562981 0.789157 -0.176141
v -4.501558 0.754669 -0.232971
v -2.499708 2.058295 0.225540
v -1.928904 2.817336 0.140585
v -2.078132 2.942436 0.246558
v -2.795003 2.309757 0.378411
# 16 positions

vt 0.732424 0.958790
vt 0.497165 0.989970
vt 0.519031 0.905893
vt 0.721780 0.918865
vt 0.310506 0.890519
vt 0.297295 0.990000
vt 0.184134 0.889342
vt 0.182676 0.846019
vt 0.327044 0.786113
vt 0.537597 0.819231
vt 0.200371 0.930783
vt 0.028852 0.902300
vt 0.010000 0.873348
vt 0.011738 0.854153
vt 0.734846 0.873540
vt 0.885216 0.930783
# 16 texture coordinates

vn 0.697604 0.651269 0.298658
vn -0.348525 0.754414 0.556229
vn -0.470899 0.678384 0.563958
vn -0.713717 0.460303 0.527948
vn -0.118125 -0.166529 0.978935
vn 0.417548 -0.787257 0.453740
vn -0.789664 0.323657 0.521227
vn -0.289130 -0.242982 0.925939
vn 0.247718 -0.838165 0.485918
vn -0.932444 0.331850 0.142910
vn -0.781050 -0.460738 0.421522
vn -0.252197 -0.966812 -0.040868
vn 0.667697 -0.567270 0.482064
vn 0.756446 -0.470847 0.453974
vn 0.175074 0.100738 0.979388
vn 0.048281 0.021358 0.998605
# 16 normals

usemtl default
f 2/1/2 3/2/3 16/3/16 15/4/15
f 5/5/5 16/3/16 3/2/3 4/6/4
f 8/7/8 9/8/9 6/9/6 5/5/5
f 5/5/5 6/9/6 13/10/13 16/3/16
f 8/7/8 5/5/5 4/6/4 7/11/7
f 10/12/10 11/13/11 8/7/8 7/11/7
f 11/13/11 12/14/12 9/8/9 8/7/8
f 13/10/13 14/15/14 15/4/15 16/3/16
f 1/16/1 2/1/2 15/4/15
f 14/15/14 1/16/1 15/4/15

g Group32765

v -1.531029 3.446848 -0.043858
v -2.143194 3.106523 0.090735
v -3.094478 2.537460 0.146536
v -3.832041 1.988195 0.126241
v -3.529072 1.650807 0.234677
v -3.162987 1.346936 0.078533
v -4.008993 1.496676 0.019972
v -3.986832 1.295124 0.051719
v -3.852720 1.180624 -0.041512
v -4.498607 0.968756 -0.282348
v -4.519652 0.809977 -0.247918
v -4.455863 0.785720 -0.299300
v -2.520339 2.080119 0.151262
v -1.938989 2.821017 0.059750
v -2.062765 2.944737 0.161565
v -2.795952 2.311040 0.295697
# 16 positions

vt 0.725247 0.603882
vt 0.714673 0.643842
vt 0.508932 0.654453
vt 0.488684 0.571085
vt 0.302128 0.668739
vt 0.290163 0.570767
vt 0.174698 0.670695
vt 0.318611 0.773347
vt 0.176431 0.713131
vt 0.526515 0.734908
vt 0.193140 0.631015
vt 0.028203 0.657056
vt 0.010000 0.686886
vt 0.013602 0.704721
vt 0.723417 0.686048
vt 0.874993 0.631015
# 16 texture coordinates

vn 0.480973 0.455221 -0.749292
vn -0.370187 0.438625 -0.818883
vn -0.316706 0.492794 -0.810464
vn -0.494180 0.461027 -0.737048
vn 0.110339 0.166889 -0.979782
vn 0.367657 -0.472059 -0.801242
vn -0.261833 0.436089 -0.860971
vn 0.275333 0.261555 -0.925084
vn 0.338561 -0.290738 -0.894901
vn -0.274641 0.337728 -0.900285
vn -0.592663 -0.020972 -0.805178
vn 0.174599 -0.362962 -0.915300
vn 0.378008 -0.313509 -0.871104
vn 0.331047 -0.338044 -0.880985
vn -0.182636 -0.093930 -0.978683
vn -0.048292 -0.024028 -0.998544
# 16 normals

usemtl default
f 18/17/18 31/18/31 32/19/32 19/20/19
f 21/21/21 20/22/20 19/20/19 32/19/32
f 24/23/24 21/21/21 22/24/22 25/25/25
f 21/21/21 32/19/32 29/26/29 22/24/22
f 24/23/24 23/27/23 20/22/20 21/21/21
f 26/28/26 23/27/23 24/23/24 27/29/27
f 27/29/27 24/23/24 25/25/25 28/30/28
f 29/26/29 32/19/32 31/18/31 30/31/30
f 31/18/31 18/17/18 17/32/17
f 31/18/31 17/32/17 30/31/30

g Group32766

# 0 positions

vt 0.842592 0.445884
vt 0.608706 0.417068
vt 0.608565 0.398568
vt 0.841134 0.427105
vt 0.413618 0.407963
vt 0.412245 0.392316
vt 0.177074 0.520467
vt 0.328666 0.539495
vt 0.327549 0.556068
vt 0.174094 0.537460
vt 0.536223 0.542536
vt 0.536552 0.559544
vt 0.302056 0.427083
vt 0.301669 0.413137
vt 0.146664 0.484910
vt 0.138282 0.468984
vt 0.132580 0.604417
vt 0.101266 0.589272
vt 0.100500 0.570947
vt 0.131196 0.586473
vt 0.020796 0.475721
vt 0.010000 0.490532
vt 0.091285 0.604417
vt 0.088874 0.586248
vt 0.734307 0.509051
vt 0.736246 0.526256
vt 0.988770 0.485426
vt 0.990000 0.468984
vt 0.890579 0.474100
vt 0.891933 0.490532
# 30 texture coordinates

# 0 normals

usemtl default
f 18/33/18 19/34/19 3/35/3 2/36/2
f 19/34/19 20/37/20 4/38/4 3/35/3
f 25/39/25 22/40/22 6/41/6 9/42/9
f 22/40/22 29/43/29 13/44/13 6/41/6
f 20/37/20 23/45/23 7/46/7 4/38/4
f 23/45/23 26/47/26 10/48/10 7/46/7
f 26/49/26 27/50/27 11/51/11 10/52/10
f 28/53/28 25/39/25 9/42/9 12/54/12
f 27/50/27 28/55/28 12/56/12 11/51/11
f 29/43/29 30/57/30 14/58/14 13/44/13
f 17/59/17 18/33/18 2/36/2 1/60/1
f 30/57/30 17/61/17 1/62/1 14/58/14

g Group55957

v -1.531029 3.446848 0.033798
v -2.158016 3.105467 0.178195
v -3.101899 2.536302 0.233347
v -3.842266 1.982652 0.199303
v -3.534212 1.642583 0.320033
v -3.170349 1.340873 0.156180
v -4.012771 1.493945 0.085515
v -3.991947 1.293361 0.139302
v -3.867633 1.168422 0.037423
v -4.535404 0.945244 -0.209697
v -4.562981 0.789157 -0.176141
v -4.501558 0.754669 -0.232971
v -2.499708 2.058295 0.225540
v -1.928904 2.817336 0.140585
v -2.078132 2.942436 0.246558
v -2.795003 2.309757 0.378411
v -1.531029 3.446848 -0.043858
v -2.143194 3.106523 0.090735
v -3.094478 2.537460 0.146536
v -3.832041 1.988195 0.126241
v -3.529072 1.650807 0.234677
v -3.162987 1.346936 0.078533
v -4.008993 1.496676 0.019972
v -3.986832 1.295124 0.051719
v -3.852720 1.180624 -0.041512
v -4.498607 0.968756 -0.282348
v -4.519652 0.809977 -0.247918
v -4.455863 0.785720 -0.299300
v -2.520339 2.080119 0.151262
v -1.938989 2.821017 0.059750
v -2.062765 2.944737 0.161565
v -2.795952 2.311040 0.295697
v 2.245544 -0.713026 -1.219130
v 2.202286 -0.831221 -1.172491
v 2.013017 -1.072465 -1.184042
v 2.065539 -1.139371 -1.184042
v 2.245195 -1.410459 -1.224364
v 2.232733 -1.540850 -1.283504
v 2.235405 -1.689744 -1.420865
v 2.120207 -1.530455 -1.318533
v 2.067364 -1.413273 -1.259409
v 2.349106 -1.404764 -1.259409
v 2.329487 -1.536346 -1.318579
v 2.581952 -0.726607 -1.259409
v 2.594291 -0.880940 -1.212770
v 2.624416 -1.067149 -1.259409
v 2.750791 -1.022444 -1.318585
v 2.887002 -0.917894 -1.415817
v 2.123966 -0.808282 -1.172491
v 1.973871 -0.846763 -1.181719
v 1.989200 -1.251474 -1.219130
v 2.771263 -0.808883 -1.318658
v 2.829475 -1.581403 -1.412265
v 2.677002 -1.408633 -1.275692
v 2.490120 -1.228204 -1.181932
v 2.418921 -1.161708 -1.157949
v 2.151131 -0.950610 -1.141653
v 2.748960 -0.902397 -1.271946
v 2.779106 -1.303199 -1.353169
v 2.579360 -1.531368 -1.353169
# 60 positions

vt 0.256514 0.251055
vt 0.283126 0.240824
vt 0.293209 0.324602
vt 0.258801 0.324163
vt 0.336449 0.200269
vt 0.350506 0.211739
vt 0.309317 0.229834
vt 0.287446 0.191803
vt 0.375852 0.196066
vt 0.412030 0.213141
vt 0.407746 0.251658
vt 0.352665 0.286940
vt 0.440447 0.224623
vt 0.437827 0.249522
vt 0.409659 0.275284
vt 0.366692 0.302522
vt 0.440694 0.271149
vt 0.296297 0.359238
vt 0.275342 0.367676
vt 0.333038 0.336141
vt 0.322519 0.365883
vt 0.278373 0.224114
vt 0.384976 0.373393
vt 0.405707 0.345047
vt 0.438685 0.328224
vt 0.480366 0.251055
vt 0.297994 0.401036
vt 0.446185 0.384204
# 28 texture coordinates

vn -0.179352 0.835358 0.519625
vn 0.081910 0.239631 0.967403
vn -0.737589 -0.085760 0.669782
vn -0.157413 -0.177424 0.971464
vn 0.017378 -0.368451 0.929485
vn 0.020054 -0.561922 0.826947
vn 0.034848 -0.969173 0.243904
vn -0.661833 -0.586657 0.466702
vn -0.647928 -0.471398 0.598309
vn 0.241257 -0.596044 0.765850
vn 0.754264 -0.472875 0.455494
vn 0.268328 0.791770 0.548726
vn 0.307033 0.127897 0.943066
vn 0.639172 -0.140869 0.756052
vn 0.562861 -0.679331 0.470846
vn 0.973050 -0.051400 0.224794
vn -0.243689 0.671302 0.699978
vn -0.713342 0.456939 0.531366
vn -0.784399 -0.230587 0.575802
vn 0.616460 0.633519 0.467579
vn 0.653301 -0.665471 0.361034
vn 0.341183 -0.275040 0.898859
vn 0.311583 -0.239763 0.919473
vn 0.180723 -0.135139 0.974206
vn -0.051426 0.023125 0.998409
vn 0.541865 0.003568 0.840458
vn 0.865084 0.248052 0.436003
vn -0.198402 -0.863891 0.462957
# 28 normals

usemtl default
f 65/63/33 66/64/34 77/65/45 76/66/44
f 67/67/35 68/68/36 89/69/57 82/70/50
f 83/71/51 73/72/41 69/73/37 68/68/36
f 68/68/36 69/73/37 88/74/56 89/69/57
f 73/72/41 72/75/40 70/76/38 69/73/37
f 69/73/37 74/77/42 87/78/55 88/74/56
f 74/77/42 69/73/37 70/76/38 75/79/43
f 76/66/44 77/65/45 90/80/58 84/81/52
f 88/74/56 87/78/55 78/82/46 77/65/45
f 79/83/47 90/80/58 77/65/45 78/82/46
f 81/84/49 82/70/50 89/69/57 66/64/34
f 91/85/59 78/82/46 87/78/55 86/86/54
f 86/86/54 87/78/55 74/77/42 92/87/60
f 77/65/45 66/64/34 89/69/57 88/74/56
f 81/84/49 66/64/34 65/63/33
f 83/71/51 68/68/36 67/67/35
f 72/75/40 71/88/39 70/76/38
f 70/76/38 71/88/39 75/79/43
f 79/83/47 80/89/48 90/80/58
f 90/80/58 80/89/48 84/81/52
f 91/85/59 86/86/54 85/90/53
f 85/90/53 86/86/54 92/87/60

g Group421

v 2.245544 -0.713026 -1.271228
v 2.202286 -0.831221 -1.224590
v 2.013017 -1.072465 -1.236141
v 2.065539 -1.139371 -1.236141
v 2.245195 -1.410459 -1.276420
v 2.232733 -1.540850 -1.335605
v 2.235405 -1.689744 -1.472173
v 2.120207 -1.530455 -1.370684
v 2.067364 -1.413273 -1.311507
v 2.349106 -1.404764 -1.311486
v 2.329487 -1.536346 -1.364545
v 2.581952 -0.726607 -1.311507
v 2.594291 -0.880940 -1.264899
v 2.624416 -1.067149 -1.311507
v 2.750791 -1.022444 -1.370684
v 2.887002 -0.917894 -1.469540
v 2.123966 -0.808282 -1.224627
v 1.973871 -0.846763 -1.233817
v 1.989200 -1.251474 -1.271228
v 2.771263 -0.808883 -1.370834
v 2.829475 -1.581403 -1.464364
v 2.677002 -1.408633 -1.327791
v 2.490120 -1.228204 -1.234030
v 2.414659 -1.162261 -1.220806
v 2.151131 -0.950610 -1.193751
v 2.748960 -0.902397 -1.324115
v 2.779106 -1.303199 -1.405268
v 2.579360 -1.531368 -1.405268
# 28 positions

vt 0.160151 0.449766
vt 0.087118 0.447636
vt 0.086613 0.413236
vt 0.170215 0.423103
vt 0.210392 0.369713
vt 0.219114 0.418645
vt 0.180985 0.396875
vt 0.198814 0.355723
vt 0.214541 0.330435
vt 0.158967 0.298586
vt 0.197463 0.294418
vt 0.124371 0.353213
vt 0.161197 0.268477
vt 0.186118 0.266023
vt 0.108259 0.339514
vt 0.135366 0.296593
vt 0.139913 0.266191
vt 0.043594 0.431158
vt 0.052008 0.410200
vt 0.075242 0.373486
vt 0.045360 0.383990
vt 0.186910 0.427799
vt 0.037350 0.321898
vt 0.065529 0.300894
vt 0.082218 0.267871
vt 0.160151 0.226012
vt 0.010000 0.408567
vt 0.026161 0.260732
# 28 texture coordinates

vn -0.322520 0.610518 -0.723359
vn -0.083491 -0.230869 -0.969396
vn -0.597766 0.073073 -0.798334
vn 0.147628 0.175695 -0.973313
vn -0.011124 0.355029 -0.934789
vn -0.004435 0.557832 -0.829942
vn 0.031687 -0.549487 -0.834901
vn -0.629076 -0.026706 -0.776885
vn -0.638027 -0.081761 -0.765661
vn 0.054443 0.037909 -0.997797
vn 0.685795 0.063740 -0.724999
vn 0.030631 0.656039 -0.754105
vn -0.300702 -0.124628 -0.945540
vn 0.009931 -0.100825 -0.994855
vn 0.038759 -0.651699 -0.757487
vn 0.507795 -0.016849 -0.861313
vn -0.345862 0.501872 -0.792782
vn -0.651134 0.426254 -0.627958
vn -0.722263 0.010243 -0.691543
vn 0.102096 0.647427 -0.755258
vn 0.472075 -0.480638 -0.739007
vn -0.341199 0.275034 -0.898854
vn -0.288533 0.220788 -0.931666
vn -0.163417 0.127132 -0.978331
vn 0.043385 -0.015738 -0.998935
vn -0.543705 -0.003499 -0.839269
vn 0.446557 0.360506 -0.818915
vn -0.371115 -0.456543 -0.808605
# 28 normals

usemtl default
f 93/91/61 104/92/72 105/93/73 94/94/62
f 95/95/63 110/96/78 117/97/85 96/98/64
f 111/99/79 96/98/64 97/100/65 101/101/69
f 96/98/64 117/97/85 116/102/84 97/100/65
f 101/101/69 97/100/65 98/103/66 100/104/68
f 97/100/65 116/102/84 115/105/83 102/106/70
f 102/106/70 103/107/71 98/103/66 97/100/65
f 104/92/72 112/108/80 118/109/86 105/93/73
f 116/102/84 105/93/73 106/110/74 115/105/83
f 107/111/75 106/110/74 105/93/73 118/109/86
f 109/112/77 94/94/62 117/97/85 110/96/78
f 119/113/87 114/114/82 115/105/83 106/110/74
f 114/114/82 120/115/88 102/106/70 115/105/83
f 105/93/73 116/102/84 117/97/85 94/94/62
f 93/91/61 94/94/62 109/112/77
f 95/95/63 96/98/64 111/99/79
f 98/103/66 99/116/67 100/104/68
f 103/107/71 99/116/67 98/103/66
f 118/109/86 108/117/76 107/111/75
f 112/108/80 108/117/76 118/109/86
f 113/118/81 114/114/82 119/113/87
f 120/115/88 114/114/82 113/118/81

g Group48932

# 0 positions

vt 0.494415 0.786450
vt 0.566055 0.779318
vt 0.568451 0.790117
vt 0.496811 0.797249
vt 0.692397 0.770496
vt 0.645372 0.758068
vt 0.648307 0.747403
vt 0.695331 0.759831
vt 0.606428 0.755079
vt 0.567374 0.753204
vt 0.570309 0.742539
vt 0.609362 0.744414
vt 0.537727 0.758079
vt 0.540664 0.747403
vt 0.205027 0.573919
vt 0.174759 0.576856
vt 0.169690 0.567030
vt 0.200553 0.565245
vt 0.448901 0.783645
vt 0.451300 0.794460
vt 0.056653 0.548448
vt 0.087713 0.550224
vt 0.082676 0.560072
vt 0.051615 0.558296
vt 0.600212 0.781875
vt 0.631908 0.772846
vt 0.634304 0.783645
vt 0.602610 0.792682
vt 0.075930 0.958642
vt 0.012889 0.955076
vt 0.010000 0.944398
vt 0.073041 0.947965
vt 0.013131 0.725683
vt 0.072275 0.722380
vt 0.069144 0.732989
vt 0.010000 0.736288
vt 0.491769 0.767786
vt 0.494658 0.757283
vt 0.249459 0.576711
vt 0.244465 0.567030
vt 0.129729 0.548141
vt 0.124535 0.558296
vt 0.411406 0.770496
vt 0.413876 0.781632
vt 0.137152 0.955076
vt 0.134263 0.944398
vt 0.127768 0.725679
vt 0.124637 0.736288
# 48 texture coordinates

# 0 normals

usemtl default
f 104/119/72 93/120/61 65/121/33 76/122/44
f 110/123/78 95/124/63 67/125/35 82/126/50
f 111/127/79 101/128/69 73/129/41 83/130/51
f 101/128/69 100/131/68 72/132/40 73/129/41
f 103/133/71 102/134/70 74/135/42 75/136/43
f 112/137/80 104/119/72 76/122/44 84/138/52
f 106/139/74 107/140/75 79/141/47 78/142/46
f 109/143/77 110/144/78 82/145/50 81/146/49
f 119/147/87 106/148/74 78/149/46 91/150/59
f 102/151/70 120/152/88 92/153/60 74/154/42
f 93/120/61 109/143/77 81/146/49 65/121/33
f 95/124/63 111/127/79 83/130/51 67/125/35
f 100/131/68 99/155/67 71/156/39 72/132/40
f 99/157/67 103/133/71 75/136/43 71/158/39
f 107/140/75 108/159/76 80/160/48 79/141/47
f 108/161/76 112/137/80 84/138/52 80/162/48
f 113/163/81 119/147/87 91/150/59 85/164/53
f 120/152/88 113/165/81 85/166/53 92/153/60

g Group39495

v -1.531029 3.446848 0.033798
v -2.158016 3.105467 0.178195
v -3.101899 2.536302 0.233347
v -3.842266 1.982652 0.199303
v -3.534212 1.642583 0.320033
v -3.170349 1.340873 0.156180
v -4.012771 1.493945 0.085515
v -3.991947 1.293361 0.139302
v -3.867633 1.168422 0.037423
v -4.535404 0.945244 -0.209697
v -4.562981 0.789157 -0.176141
v -4.501558 0.754669 -0.232971
v -2.499708 2.058295 0.225540
v -1.928904 2.817336 0.140585
v -2.078132 2.942436 0.246558
v -2.795003 2.309757 0.378411
v -1.531029 3.446848 -0.043858
v -2.143194 3.106523 0.090735
v -3.094478 2.537460 0.146536
v -3.832041 1.988195 0.126241
v -3.529072 1.650807 0.234677
v -3.162987 1.346936 0.078533
v -4.008993 1.496676 0.019972
v -3.986832 1.295124 0.051719
v -3.852720 1.180624 -0.041512
v -4.498607 0.968756 -0.282348
v -4.519652 0.809977 -0.247918
v -4.455863 0.785720 -0.299300
v -2.520339 2.080119 0.151262
v -1.938989 2.821017 0.059750
v -2.062765 2.944737 0.161565
v -2.795952 2.311040 0.295697
v 2.245544 -0.713026 -1.219130
v 2.202286 -0.831221 -1.172491
v 2.013017 -1.072465 -1.184042
v 2.065539 -1.139371 -1.184042
v 2.245195 -1.410459 -1.224364
v 2.232733 -1.540850 -1.283504
v 2.235405 -1.689744 -1.420865
v 2.120207 -1.530455 -1.318533
v 2.067364 -1.413273 -1.259409
v 2.349106 -1.404764 -1.259409
v 2.329487 -1.536346 -1.318579
v 2.581952 -0.726607 -1.259409
v 2.594291 -0.880940 -1.212770
v 2.624416 -1.067149 -1.259409
v 2.750791 -1.022444 -1.318585
v 2.887002 -0.917894 -1.415817
v 2.123966 -0.808282 -1.172491
v 1.973871 -0.846763 -1.181719
v 1.989200 -1.251474 -1.219130
v 2.771263 -0.808883 -1.318658
v 2.829475 -1.581403 -1.412265
v 2.677002 -1.408633 -1.275692
v 2.490120 -1.228204 -1.181932
v 2.418921 -1.161708 -1.157949
v 2.151131 -0.950610 -1.141653
v 2.748960 -0.902397 -1.271946
v 2.779106 -1.303199 -1.353169
v 2.579360 -1.531368 -1.353169
v 2.245544 -0.713026 -1.271228
v 2.202286 -0.831221 -1.224590
v 2.013017 -1.072465 -1.236141
v 2.065539 -1.139371 -1.236141
v 2.245195 -1.410459 -1.276420
v 2.232733 -1.540850 -1.335605
v 2.235405 -1.689744 -1.472173
v 2.120207 -1.530455 -1.370684
v 2.067364 -1.413273 -1.311507
v 2.349106 -1.404764 -1.311486
v 2.329487 -1.536346 -1.364545
v 2.581952 -0.726607 -1.311507
v 2.594291 -0.880940 -1.264899
v 2.624416 -1.067149 -1.311507
v 2.750791 -1.022444 -1.370684
v 2.887002 -0.917894 -1.469540
v 2.123966 -0.808282 -1.224627
v 1.973871 -0.846763 -1.233817
v 1.989200 -1.251474 -1.271228
v 2.771263 -0.808883 -1.370834
v 2.829475 -1.581403 -1.464364
v 2.677002 -1.408633 -1.327791
v 2.490120 -1.228204 -1.234030
v 2.414659 -1.162261 -1.220806
v 2.151131 -0.950610 -1.193751
v 2.748960 -0.902397 -1.324115
v 2.779106 -1.303199 -1.405268
v 2.579360 -1.531368 -1.405268
v 0.231978 -0.436458 1.244966
v 0.119740 -0.309472 1.325090
v -0.013149 -0.169111 1.355232
v -0.158847 -0.018020 1.335584
v -0.280954 0.113659 1.270925
v -0.397474 0.262809 1.139084
v -0.201378 0.245106 1.208933
v -0.028994 0.143456 1.258082
v 0.101419 -0.020051 1.284368
v 0.190483 -0.227225 1.268779
v 0.022377 -0.378234 1.266237
v -0.182269 -0.255388 1.281478
v -0.331344 -0.122531 1.258024
v -0.405614 0.043420 1.203041
# 102 positions

vt 0.054281 0.763075
vt 0.102060 0.747843
vt 0.095004 0.789701
vt 0.054703 0.788965
vt 0.105286 0.831746
vt 0.055104 0.817135
vt 0.148724 0.746119
vt 0.138166 0.791565
vt 0.149325 0.836062
vt 0.191502 0.760246
vt 0.177598 0.792405
vt 0.189391 0.823941
vt 0.015701 0.790012
vt 0.225815 0.790012
# 14 texture coordinates

vn 0.698592 -0.624399 0.349420
vn 0.210133 -0.223523 0.951778
vn 0.037971 -0.051913 0.997929
vn -0.145971 0.143596 0.978812
vn -0.314095 0.307840 0.898097
vn -0.557564 0.823359 0.105843
vn 0.237208 0.928294 0.286363
vn 0.559448 0.749850 0.353190
vn 0.764072 0.515060 0.388467
vn 0.897075 0.290853 0.332658
vn -0.304371 -0.774973 0.553873
vn -0.499179 -0.613116 0.612299
vn -0.718279 -0.382060 0.581468
vn -0.878431 -0.031982 0.476798
# 14 normals

usemtl default
f 218/167/98 217/168/97 211/169/91 210/170/90
f 210/170/90 211/169/91 220/171/100 219/172/99
f 217/168/97 216/173/96 212/174/92 211/169/91
f 211/169/91 212/174/92 221/175/101 220/171/100
f 216/173/96 215/176/95 213/177/93 212/174/92
f 212/174/92 213/177/93 222/178/102 221/175/101
f 218/167/98 210/170/90 209/179/89
f 209/179/89 210/170/90 219/172/99
f 213/177/93 214/180/94 222/178/102
f 214/180/94 213/177/93 215/176/95

g Group49495

v 0.226864 -0.439759 1.217805
v 0.100338 -0.333993 1.296744
v -0.022393 -0.193849 1.325942
v -0.167663 -0.025964 1.306530
v -0.284740 0.097847 1.238870
v -0.398732 0.250314 1.114872
v -0.207576 0.232089 1.182944
v -0.035021 0.130163 1.231079
v 0.094946 -0.032894 1.258114
v 0.184366 -0.239974 1.243114
v 0.018719 -0.382401 1.238135
v -0.183853 -0.257793 1.253604
v -0.330326 -0.127386 1.230917
v -0.404554 0.033502 1.176995
# 14 positions

vt 0.534431 0.459702
vt 0.533725 0.488672
vt 0.494957 0.487889
vt 0.486464 0.444240
vt 0.532287 0.512267
vt 0.482181 0.525835
vt 0.449306 0.487575
vt 0.439794 0.442665
vt 0.439102 0.530119
vt 0.411344 0.488872
vt 0.397201 0.457013
vt 0.400002 0.518664
vt 0.571588 0.485832
vt 0.363761 0.485832
# 14 texture coordinates

vn 0.376554 -0.582711 -0.720177
vn -0.144961 0.297003 -0.943809
vn -0.010947 0.084251 -0.996384
vn 0.153699 -0.143480 -0.977645
vn 0.318734 -0.298829 -0.899505
vn -0.428750 0.278352 -0.859473
vn 0.355628 0.310759 -0.881452
vn 0.418494 0.222526 -0.880537
vn 0.417708 0.184771 -0.889595
vn 0.395380 0.166899 -0.903227
vn -0.241078 -0.536210 -0.808925
vn -0.328382 -0.568147 -0.754569
vn -0.463458 -0.532374 -0.708368
vn -0.548628 -0.341325 -0.763220
# 14 normals

usemtl default
f 232/181/112 224/182/104 225/183/105 231/184/111
f 224/182/104 233/185/113 234/186/114 225/183/105
f 231/184/111 225/183/105 226/187/106 230/188/110
f 225/183/105 234/186/114 235/189/115 226/187/106
f 230/188/110 226/187/106 227/190/107 229/191/109
f 226/187/106 235/189/115 236/192/116 227/190/107
f 223/193/103 224/182/104 232/181/112
f 233/185/113 224/182/104 223/193/103
f 236/192/116 228/194/108 227/190/107
f 229/191/109 227/190/107 228/194/108

g Group32470

# 0 positions

vt 0.051108 0.603644
vt 0.096921 0.617957
vt 0.097375 0.624297
vt 0.051609 0.609845
vt 0.123873 0.976629
vt 0.073837 0.984186
vt 0.073117 0.978147
vt 0.123350 0.970703
vt 0.141559 0.618618
vt 0.142124 0.625110
vt 0.165786 0.977122
vt 0.166035 0.971276
vt 0.184033 0.608083
vt 0.184538 0.614372
vt 0.204599 0.983440
vt 0.205857 0.977653
vt 0.011351 0.585507
vt 0.010000 0.591260
vt 0.028163 0.990000
vt 0.027104 0.984186
vt 0.252095 0.989666
vt 0.253965 0.984186
vt 0.221011 0.585638
vt 0.222399 0.591260
# 24 texture coordinates

# 0 normals

usemtl default
f 232/195/112 231/196/111 217/197/97 218/198/98
f 234/199/114 233/200/113 219/201/99 220/202/100
f 231/196/111 230/203/110 216/204/96 217/197/97
f 235/205/115 234/199/114 220/202/100 221/206/101
f 230/203/110 229/207/109 215/208/95 216/204/96
f 236/209/116 235/205/115 221/206/101 222/210/102
f 223/211/103 232/195/112 218/198/98 209/212/89
f 233/200/113 223/213/103 209/214/89 219/201/99
f 228/215/108 236/209/116 222/210/102 214/216/94
f 229/207/109 228/217/108 214/218/94 215/208/95

# 124 faces
