# Wavefront OBJ exported by MilkShape 3D

mtllib fist.mtl

v -0.953125 -2.984375 2.812500
v 0.000000 -2.437500 3.062500
v 0.234375 -3.375000 -1.890625
v -2.734375 -1.187500 2.484375
v -1.640625 -1.015625 -3.062500
v -2.859375 0.046875 0.171875
v -2.531250 -1.578125 -1.578125
v 1.015625 3.187500 -2.921875
v 0.656250 4.015625 -0.687500
v -1.625000 2.125000 -0.453125
v 2.437500 1.406250 -2.265625
v 1.015625 3.187500 -2.921875
v 1.109375 -2.500000 -0.093750
v 1.515625 0.093750 2.359375
v 2.640625 1.156250 -0.234375
v -1.640625 -1.015625 -3.062500
v 1.562500 3.015625 0.312500
v -2.187500 0.093750 3.078125
v 1.562500 3.015625 0.312500
v -2.187500 0.093750 3.078125
v -2.531250 -1.578125 -1.578125
v -2.734375 -1.187500 2.484375
v 2.640625 1.156250 -0.234375
v 1.515625 0.093750 2.359375
v 1.562500 3.015625 0.312500
v 1.015625 3.187500 -2.921875
v 0.656250 4.015625 -0.687500
v 2.437500 1.406250 -2.265625
# 28 vertices

vt 0.333700 0.678000
vt 0.347000 0.614900
vt 0.330600 0.651400
vt 0.313600 0.607700
vt 0.320900 0.582600
vt 0.309100 0.592000
vt 0.246600 0.606800
vt 0.247100 0.619300
vt 0.228700 0.632300
vt 0.259100 0.709200
vt 0.282700 0.633500
vt 0.273400 0.700300
vt 0.301400 0.689300
vt 0.042700 0.718100
vt 0.062300 0.722200
vt 0.004900 0.631700
vt 0.065500 0.671200
vt 0.109000 0.719200
vt 0.115600 0.638100
vt 0.197600 0.495100
vt 0.226100 0.478200
vt 0.209100 0.532200
vt 0.254400 0.521400
vt 0.260700 0.487400
vt 0.225000 0.444300
vt 0.091800 0.617400
vt 0.059200 0.629800
vt 0.018600 0.610700
# 28 texture coordinates

vn 0.656873 0.669131 0.347537
vn -0.387979 0.510631 0.767286
vn 0.707654 0.067708 0.703308
vn 0.308299 -0.521185 0.795813
vn -0.798541 -0.225951 0.557923
vn -0.358584 -0.836989 0.413360
vn -0.850225 -0.478512 -0.219417
vn 0.286860 -0.823253 -0.489863
vn -0.681182 0.067708 -0.728976
vn 0.233061 0.552365 -0.800360
vn 0.862331 -0.500000 0.079907
vn 0.938115 0.043107 -0.343629
vn 0.985284 0.043107 0.165400
vn -0.135979 0.969797 0.202493
vn -0.774255 0.612420 -0.159595
vn -0.955310 0.285492 -0.076665
# 16 normals

g fist01
usemtl Material06
s 1
f 17/1/1 18/2/2 14/3/3
f 18/2/2 2/4/4 14/3/3
f 18/2/2 4/5/5 2/4/4
f 4/5/5 1/6/6 2/4/4
f 4/5/5 21/7/7 1/6/6
f 21/7/7 3/8/8 1/6/6
f 21/7/7 16/9/9 3/8/8
f 16/9/9 12/10/10 3/8/8
f 1/6/6 3/8/8 2/4/4
f 3/8/8 13/11/11 2/4/4
f 3/8/8 11/12/12 13/11/11
f 11/12/12 15/13/13 13/11/11
f 3/8/8 12/10/10 11/12/12
f 19/14/1 9/15/14 20/16/2
f 9/15/14 10/17/15 20/16/2
f 9/15/14 8/18/10 10/17/15
f 8/18/10 5/19/9 10/17/15
f 27/20/14 25/21/1 26/22/10
f 25/21/1 28/23/12 26/22/10
f 25/21/1 23/24/13 28/23/12
f 25/21/1 24/25/3 23/24/13
f 15/13/13 14/3/3 13/11/11
f 14/3/3 2/4/4 13/11/11
f 7/26/7 6/27/16 5/19/9
f 6/27/16 10/17/15 5/19/9
f 6/27/16 20/16/2 10/17/15
f 20/16/2 6/27/16 22/28/5
f 6/27/16 7/26/7 22/28/5
# 28 triangles in group

# 28 triangles total

