# Wavefront OBJ exported by MilkShape 3D

mtllib forearm.mtl

v 6.609375 -3.937500 -1.156250
v 5.531250 -3.015625 3.687500
v 7.140625 -2.968750 3.515625
v 8.015625 -0.500000 3.203125
v 8.046875 -0.953125 -0.859375
v 7.375000 0.140625 0.890625
v 6.984375 -0.937500 -2.328125
v 5.328125 1.734375 0.250000
v 2.375000 2.140625 0.015625
v 2.500000 1.250000 -2.203125
v 2.500000 1.250000 -2.203125
v 2.218750 -1.000000 -1.546875
v 5.406250 -3.640625 0.609375
v 3.687500 -1.640625 3.078125
v 6.984375 -0.937500 -2.328125
v 6.078125 0.281250 3.703125
v 2.140625 0.812500 1.031250
v 6.078125 0.281250 3.703125
v 2.140625 0.812500 1.031250
v 8.046875 -0.953125 -0.859375
v 8.015625 -0.500000 3.203125
v 1.906250 -0.500000 0.984375
v -5.437500 3.546875 -0.656250
v -3.046875 3.421875 1.234375
v -6.265625 2.562500 1.203125
v -6.265625 2.562500 1.203125
v -3.046875 3.421875 1.234375
v -5.875000 -0.703125 0.250000
v -2.609375 -1.453125 -2.468750
v -2.281250 1.375000 -4.031250
v -1.375000 3.328125 -1.953125
v -2.281250 1.375000 -4.031250
v -4.500000 3.218750 -3.296875
v -6.265625 2.562500 1.203125
v -5.875000 -0.703125 0.250000
v -5.437500 3.546875 -0.656250
v -4.500000 3.218750 -3.296875
v -2.281250 1.375000 -4.031250
v -2.609375 -1.453125 -2.468750
v -8.843750 0.750000 -1.984375
v -6.640625 1.109375 -1.984375
v -6.640625 1.109375 -3.359375
v -3.671875 0.640625 -2.125000
v -6.500000 2.000000 -1.984375
v -3.515625 1.531250 -2.812500
v -3.515625 1.531250 -1.437500
v -6.500000 2.000000 -3.359375
v -8.562500 2.625000 -1.984375
v -8.640625 2.250000 -4.171875
v -8.796875 1.156250 -4.171875
v -7.796875 -0.234375 0.812500
v -6.421875 0.515625 0.125000
v -6.859375 0.453125 -0.812500
v -4.390625 0.859375 -0.921875
v -6.531250 1.203125 0.125000
v -4.703125 1.500000 -1.390625
v -4.265625 1.578125 -0.437500
v -6.968750 1.125000 -0.812500
v -8.031250 1.171875 0.812500
v -8.687500 0.781250 -0.703125
v -8.546875 -0.046875 -0.703125
# 61 vertices

vt 0.353500 0.828700
vt 0.327000 0.826300
vt 0.364800 0.781100
vt 0.330900 0.688300
vt 0.305900 0.688900
vt 0.323100 0.642900
vt 0.267300 0.704400
vt 0.286400 0.633100
vt 0.255200 0.627000
vt 0.326000 0.608800
vt 0.312400 0.589400
vt 0.314400 0.568400
vt 0.251000 0.596600
vt 0.017700 0.880000
vt 0.025400 0.818000
vt 0.056400 0.867600
vt 0.092000 0.792200
vt 0.063200 0.716300
vt 0.106800 0.718100
vt 0.066200 0.659100
vt 0.120900 0.632300
vt 0.059100 0.618700
vt 0.095000 0.609300
vt 0.016000 0.602100
vt 0.273600 0.793500
vt 0.238800 0.799700
vt 0.244800 0.705100
vt 0.349200 0.606100
vt 0.229700 0.629700
vt 0.110100 0.854800
vt 0.130200 0.813700
vt 0.278700 0.456600
vt 0.207800 0.463000
vt 0.278500 0.533000
vt 0.232400 0.553500
vt 0.193400 0.532000
vt 0.173800 0.501500
vt 0.001200 0.638200
vt 0.042900 0.718900
vt 0.948700 0.419800
vt 0.944700 0.416000
vt 0.942000 0.478300
vt 0.950600 0.476700
vt 0.969300 0.419300
vt 0.975200 0.480000
vt 0.966600 0.481700
vt 0.932100 0.521100
vt 0.950200 0.517700
vt 0.986100 0.524100
vt 0.975500 0.526000
vt 0.946100 0.532100
vt 0.942600 0.530800
vt 0.938200 0.569200
vt 0.946500 0.576500
vt 0.965700 0.531300
vt 0.969600 0.577000
vt 0.961300 0.577800
vt 0.927600 0.609700
vt 0.945100 0.608300
vt 0.978700 0.609600
vt 0.968400 0.610400
# 61 texture coordinates

vn -0.673195 0.423548 0.606148
vn -0.797697 -0.521185 0.303391
vn 0.071481 0.687237 0.722908
vn -0.235407 0.261793 0.935974
vn -0.355119 -0.696134 0.623929
vn -0.691295 -0.366979 0.622445
vn -0.264806 -0.836989 -0.478881
vn -0.475115 -0.875117 0.091847
vn 0.208178 -0.850217 -0.483521
vn -0.079962 -0.582791 0.808679
vn 0.700209 -0.562593 0.439541
vn 0.709800 0.355491 0.608120
vn 0.969983 0.092268 -0.224987
vn -0.565877 0.816197 -0.116642
vn 0.233359 0.923289 -0.305091
vn 0.156437 0.956604 0.245836
vn 0.253266 0.423548 -0.869749
vn 0.385252 0.913545 -0.130445
vn 0.543846 0.445738 -0.711019
vn 0.594433 0.801714 -0.062477
vn -0.147385 -0.918487 -0.366959
vn -0.061467 -0.055411 -0.996570
vn 0.018309 0.669131 0.742919
vn -0.495080 0.489293 -0.717975
vn 0.091724 -0.918487 -0.384666
vn 0.000000 0.237935 0.971281
vn -0.037010 -0.659925 0.750420
vn 0.087162 0.704926 0.703905
vn 0.215633 0.856638 -0.468693
vn 0.378887 0.572735 -0.726924
vn 0.267567 -0.696134 -0.666187
vn -0.271412 -0.659925 0.700596
vn -0.513909 0.801714 0.305208
vn -0.077103 0.445738 -0.891837
vn -0.789073 -0.343949 -0.508982
vn 0.202256 -0.875117 -0.439617
vn 0.281227 0.261793 0.923242
vn 0.444886 -0.602635 0.662501
vn 0.159833 0.755383 0.635492
vn -0.271292 0.843667 -0.463278
vn -0.183362 0.612420 -0.768973
vn 0.162780 -0.622113 -0.765819
vn 0.231380 -0.678235 0.697467
vn -0.549838 0.631711 0.546461
vn -0.567854 0.355491 -0.742407
vn -0.781586 -0.602635 -0.161106
# 46 normals

g forearm01
usemtl Material04
s 1
f 26/1/1 28/2/2 27/3/3
f 28/2/2 17/4/4 27/3/3
f 28/2/2 22/5/5 17/4/4
f 22/5/5 14/6/6 17/4/4
f 22/5/5 12/7/7 14/6/6
f 12/7/7 13/8/8 14/6/6
f 12/7/7 1/9/9 13/8/8
f 1/9/9 2/10/10 13/8/8
f 1/9/9 3/11/11 2/10/10
f 3/11/11 4/12/12 2/10/10
f 3/11/11 20/13/13 4/12/12
f 25/14/1 24/15/3 23/16/14
f 24/15/3 31/17/15 23/16/14
f 24/15/3 9/18/16 31/17/15
f 9/18/16 10/19/17 31/17/15
f 9/18/16 8/20/18 10/19/17
f 8/20/18 7/21/19 10/19/17
f 8/20/18 6/22/20 7/21/19
f 6/22/20 5/23/13 7/21/19
f 6/22/20 21/24/12 5/23/13
f 28/2/2 29/25/21 22/5/5
f 29/25/21 12/7/7 22/5/5
f 29/25/21 30/26/22 12/7/7
f 30/26/22 11/27/17 12/7/7
f 13/8/8 2/10/10 14/6/6
f 2/10/10 16/28/23 14/6/6
f 2/10/10 4/12/12 16/28/23
f 16/28/23 17/4/4 14/6/6
f 3/11/11 1/9/9 20/13/13
f 1/9/9 15/29/19 20/13/13
f 1/9/9 11/27/17 15/29/19
f 1/9/9 12/7/7 11/27/17
f 23/16/14 31/17/15 33/30/24
f 31/17/15 32/31/22 33/30/24
f 31/17/15 10/19/17 32/31/22
f 39/32/21 35/33/2 38/34/22
f 35/33/2 37/35/24 38/34/22
f 35/33/2 36/36/14 37/35/24
f 35/33/2 34/37/1 36/36/14
f 21/24/12 6/22/20 18/38/23
f 6/22/20 8/20/18 18/38/23
f 8/20/18 9/18/16 18/38/23
f 9/18/16 19/39/4 18/38/23
f 9/18/16 24/15/3 19/39/4
f 43/40/25 46/41/26 41/42/27
f 46/41/26 44/43/28 41/42/27
f 46/41/26 45/44/29 44/43/28
f 45/44/29 47/45/30 44/43/28
f 45/44/29 43/40/25 47/45/30
f 43/40/25 42/46/31 47/45/30
f 43/40/25 41/42/27 42/46/31
f 41/42/27 40/47/32 42/46/31
f 41/42/27 44/43/28 40/47/32
f 44/43/28 48/48/33 40/47/32
f 44/43/28 47/45/30 48/48/33
f 47/45/30 49/49/34 48/48/33
f 47/45/30 42/46/31 49/49/34
f 42/46/31 50/50/35 49/49/34
f 42/46/31 40/47/32 50/50/35
f 40/47/32 48/48/33 50/50/35
f 48/48/33 49/49/34 50/50/35
f 54/51/36 57/52/37 52/53/38
f 57/52/37 55/54/39 52/53/38
f 57/52/37 56/55/40 55/54/39
f 56/55/40 58/56/41 55/54/39
f 56/55/40 54/51/36 58/56/41
f 54/51/36 53/57/42 58/56/41
f 54/51/36 52/53/38 53/57/42
f 52/53/38 51/58/43 53/57/42
f 52/53/38 55/54/39 51/58/43
f 55/54/39 59/59/44 51/58/43
f 55/54/39 58/56/41 59/59/44
f 58/56/41 60/60/45 59/59/44
f 58/56/41 53/57/42 60/60/45
f 53/57/42 61/61/46 60/60/45
f 53/57/42 51/58/43 61/61/46
f 51/58/43 59/59/44 61/61/46
f 59/59/44 60/60/45 61/61/46
# 78 triangles in group

# 78 triangles total

