# Wavefront OBJ exported by MilkShape 3D

mtllib brain.mtl

v -1.906250 0.625000 2.875000
v 0.953125 -0.546875 1.453125
v -2.062500 -0.375000 0.968750
v -0.406250 -0.234375 2.968750
v -1.156250 -2.265625 -0.109375
v -2.328125 -1.531250 -0.093750
v -0.796875 -2.734375 -2.296875
v -2.031250 -1.781250 -1.546875
v -0.406250 -1.593750 -3.265625
v -1.078125 0.171875 -3.750000
v -2.265625 0.218750 -2.734375
v -2.265625 0.218750 -2.734375
v -0.718750 2.062500 -2.625000
v -2.296875 1.484375 -1.750000
v -1.078125 0.171875 -3.750000
v -0.296875 2.609375 0.296875
v -1.640625 1.765625 0.140625
v -0.796875 2.312500 3.234375
v -1.906250 0.625000 2.875000
v -0.421875 1.046875 3.953125
v -0.421875 1.046875 3.953125
v 1.609375 -0.187500 2.906250
v 1.062500 -2.250000 -0.125000
v 0.421875 -2.734375 -2.250000
v 0.906250 -1.593750 -3.218750
v 0.390625 0.187500 -3.546875
v 0.484375 2.062500 -2.609375
v 0.390625 0.187500 -3.546875
v 1.031250 2.296875 3.234375
v 1.171875 1.093750 3.625000
v 1.171875 1.093750 3.625000
v 2.484375 -0.328125 0.937500
v 2.500000 0.687500 2.343750
v 2.562500 -1.468750 -0.109375
v 2.296875 -1.453125 -1.968750
v 2.265625 0.156250 -2.750000
v 2.265625 0.156250 -2.750000
v 2.296875 1.765625 0.125000
v 2.500000 0.687500 2.343750
v -2.609375 0.718750 0.578125
v -2.609375 0.718750 0.578125
v -2.703125 -0.031250 -0.921875
v -2.703125 -0.031250 -0.921875
v 3.015625 0.140625 0.000000
v 3.015625 0.140625 0.000000
# 45 vertices

vt 0.185500 0.519700
vt 0.169300 0.551400
vt 0.197900 0.575900
vt 0.158500 0.508100
vt 0.180000 0.487400
vt 0.207800 0.536300
vt 0.201400 0.487800
vt 0.230400 0.534000
vt 0.241700 0.488200
vt 0.264200 0.529000
vt 0.268900 0.488100
vt 0.279200 0.552000
vt 0.297400 0.486000
vt 0.018300 0.559200
vt 0.056600 0.550900
vt 0.048800 0.583400
vt 0.082000 0.547900
vt 0.058700 0.486200
vt 0.113300 0.484400
vt 0.082200 0.431900
vt 0.124300 0.430300
vt 0.087400 0.402800
vt 0.096500 0.585100
vt 0.132800 0.548400
vt 0.142200 0.484100
vt 0.043600 0.431800
vt 0.046300 0.403400
vt 0.013400 0.431300
vt 0.031000 0.492500
vt 0.002000 0.485100
vt 0.021600 0.535500
vt 0.003300 0.519300
vt 0.252700 0.399400
vt 0.213900 0.391500
vt 0.251800 0.421000
vt 0.214900 0.419500
vt 0.177900 0.417100
vt 0.239800 0.453200
vt 0.184700 0.463800
vt 0.284900 0.429900
vt 0.267600 0.464400
vt 0.160800 0.472200
vt 0.214800 0.557600
vt 0.234000 0.570900
vt 0.239100 0.556500
# 45 texture coordinates

vn -0.801166 -0.456733 -0.386690
vn -0.834595 0.116773 -0.538345
vn -0.348235 0.092268 -0.932855
vn -0.994352 -0.104529 0.018378
vn -0.772850 -0.582791 0.251114
vn -0.377932 -0.850217 -0.366467
vn -0.172303 -0.836989 0.519385
vn 0.265353 -0.945184 -0.190304
vn 0.307997 -0.875117 0.373240
vn 0.734898 -0.602635 -0.311056
vn 0.792574 -0.542053 0.279292
vn 0.818451 0.141206 -0.556956
vn 0.997686 -0.006160 0.067707
vn -0.348291 0.771298 -0.532722
vn 0.273883 0.755383 -0.595303
vn -0.118197 0.992420 -0.033630
vn 0.687909 0.722186 -0.072302
vn 0.440248 0.771298 0.459653
vn 0.883088 0.043107 0.467223
vn 0.381478 0.116773 0.916973
vn 0.230958 0.092268 -0.968579
vn -0.356860 0.722186 0.592535
vn -0.120358 -0.201882 0.971986
vn -0.825055 -0.225951 0.517910
vn -0.658098 0.739009 0.144126
vn -0.943387 0.237935 0.231102
vn -0.766030 0.631711 -0.118910
vn 0.355119 -0.696134 0.623929
vn -0.216845 -0.862929 0.456433
vn 0.012450 -0.862929 0.505172
vn -0.634232 -0.521185 0.571065
vn 0.675887 -0.602635 0.424273
vn -0.279175 -0.389786 -0.877569
vn 0.314959 -0.434677 -0.843716
# 34 normals

g brain01
usemtl Material08
s 1
f 8/1/1 11/2/2 10/3/3
f 11/2/2 8/1/1 42/4/4
f 8/1/1 6/5/5 42/4/4
f 8/1/1 7/6/6 6/5/5
f 7/6/6 5/7/7 6/5/5
f 7/6/6 24/8/8 5/7/7
f 24/8/8 23/9/9 5/7/7
f 24/8/8 35/10/10 23/9/9
f 35/10/10 34/11/11 23/9/9
f 35/10/10 36/12/12 34/11/11
f 36/12/12 45/13/13 34/11/11
f 12/14/2 13/15/14 15/16/3
f 13/15/14 27/17/15 15/16/3
f 13/15/14 16/18/16 27/17/15
f 16/18/16 38/19/17 27/17/15
f 16/18/16 29/20/18 38/19/17
f 29/20/18 39/21/19 38/19/17
f 29/20/18 30/22/20 39/21/19
f 15/16/3 27/17/15 28/23/21
f 27/17/15 37/24/12 28/23/21
f 27/17/15 38/19/17 37/24/12
f 38/19/17 44/25/13 37/24/12
f 38/19/17 39/21/19 44/25/13
f 30/22/20 18/26/22 20/27/23
f 18/26/22 19/28/24 20/27/23
f 18/26/22 17/29/25 19/28/24
f 17/29/25 41/30/26 19/28/24
f 17/29/25 14/31/27 41/30/26
f 14/31/27 43/32/4 41/30/26
f 14/31/27 12/14/2 43/32/4
f 12/14/2 14/31/27 13/15/14
f 14/31/27 16/18/16 13/15/14
f 14/31/27 17/29/25 16/18/16
f 17/29/25 18/26/22 16/18/16
f 16/18/16 18/26/22 29/20/18
f 18/26/22 30/22/20 29/20/18
f 31/33/20 21/34/23 22/35/28
f 21/34/23 4/36/29 22/35/28
f 21/34/23 1/37/24 4/36/29
f 1/37/24 2/38/30 4/36/29
f 1/37/24 3/39/31 2/38/30
f 3/39/31 5/7/7 2/38/30
f 3/39/31 6/5/5 5/7/7
f 31/33/20 22/35/28 33/40/19
f 22/35/28 32/41/32 33/40/19
f 22/35/28 2/38/30 32/41/32
f 2/38/30 34/11/11 32/41/32
f 2/38/30 23/9/9 34/11/11
f 22/35/28 4/36/29 2/38/30
f 2/38/30 5/7/7 23/9/9
f 6/5/5 3/39/31 42/4/4
f 3/39/31 40/42/26 42/4/4
f 3/39/31 1/37/24 40/42/26
f 33/40/19 32/41/32 45/13/13
f 32/41/32 34/11/11 45/13/13
f 8/1/1 10/3/3 9/43/33
f 10/3/3 26/44/21 9/43/33
f 8/1/1 9/43/33 7/6/6
f 9/43/33 25/45/34 7/6/6
f 9/43/33 26/44/21 25/45/34
f 26/44/21 36/12/12 25/45/34
f 7/6/6 25/45/34 24/8/8
f 25/45/34 35/10/10 24/8/8
f 25/45/34 36/12/12 35/10/10
# 64 triangles in group

# 64 triangles total

