# Wavefront OBJ exported by MilkShape 3D

mtllib skull.mtl

v 1.281250 -3.109375 6.203125
v 0.000000 -3.000000 3.218750
v -1.281250 -3.140625 6.203125
v 2.750000 -2.437500 4.484375
v 3.000000 -1.328125 1.859375
v -0.093750 7.671875 -2.062500
v -3.078125 6.750000 -1.875000
v -0.046875 4.062500 -0.093750
v -0.031250 0.687500 -6.796875
v 2.984375 2.437500 -5.843750
v -3.015625 0.671875 -5.843750
v 2.718750 -1.359375 -0.234375
v -2.718750 -1.406250 -0.234375
v 2.937500 6.796875 -1.875000
v -4.093750 3.796875 -3.531250
v -3.000000 -1.375000 1.859375
v -2.734375 -2.484375 4.484375
v -4.593750 4.031250 -1.218750
v 4.500000 4.109375 -2.343750
v 0.343750 -7.406250 0.640625
v 1.984375 -6.515625 2.421875
v 2.203125 -7.015625 1.109375
v 0.812500 -8.109375 0.375000
v 2.531250 -7.812500 0.875000
v 2.656250 -8.109375 0.031250
v 0.468750 -6.687500 1.859375
v -1.328125 -5.718750 0.390625
v -2.578125 -3.156250 1.906250
v -2.343750 -4.687500 0.859375
v -3.109375 -3.937500 0.500000
v -3.734375 -3.078125 -0.312500
v -2.625000 -4.156250 -0.828125
v -3.437500 -3.156250 0.140625
v -2.015625 -5.656250 -2.000000
v -0.625000 -7.234375 -1.125000
v 0.640625 -8.265625 -0.703125
v -2.578125 -3.562500 0.296875
v -1.812500 -4.312500 0.671875
v 0.234375 -6.031250 1.484375
v -0.765625 -5.296875 0.156250
v 1.765625 -5.953125 2.031250
v 1.343750 -7.921875 -0.500000
v 3.812500 -6.000000 0.656250
v 3.968750 -6.828125 0.390625
v 4.203125 -6.812500 -0.687500
v 3.843750 -3.609375 0.421875
v 3.203125 -5.593750 1.875000
v 3.890625 -1.093750 0.546875
v 3.843750 -2.171875 0.906250
v 2.953125 -0.906250 1.937500
v 3.703125 -1.578125 -0.796875
v 3.734375 -0.046875 -0.265625
v 3.578125 -0.312500 0.187500
v 4.312500 -3.078125 -1.953125
v 4.421875 -5.187500 -1.093750
v 3.250000 -1.187500 0.343750
v 3.218750 -2.265625 0.703125
v 2.921875 -4.937500 1.500000
v 3.156250 -3.703125 0.187500
v 3.468750 -7.062500 -0.484375
v 4.578125 1.984375 1.671875
v 3.000000 -1.328125 1.859375
v 3.703125 0.984375 4.406250
v 3.203125 3.343750 1.265625
v 2.968750 2.625000 2.578125
v 4.203125 -0.281250 0.437500
v 4.500000 4.109375 -2.343750
v 2.937500 6.625000 1.671875
v 2.718750 -1.359375 -0.234375
v 2.937500 6.796875 -1.875000
v -0.093750 7.453125 2.093750
v -0.093750 7.671875 -2.062500
v 2.937500 6.625000 1.671875
v -0.078125 5.703125 4.156250
v -0.093750 7.453125 2.093750
v -1.625000 3.296875 5.140625
v 1.453125 3.328125 5.140625
v -0.046875 2.171875 4.546875
v -0.031250 1.015625 5.890625
v 3.703125 0.984375 4.406250
v 1.953125 -0.921875 5.031250
v -1.281250 -3.140625 6.203125
v -0.015625 -1.406250 6.031250
v 1.281250 -3.109375 6.203125
v 2.968750 2.625000 2.578125
v 1.953125 -0.921875 5.031250
v 2.750000 -2.437500 4.484375
v 2.750000 -2.437500 4.484375
v 4.843750 0.859375 -2.703125
v 1.421875 -2.937500 -0.890625
v 2.984375 2.437500 -5.843750
v 2.328125 -2.203125 -5.484375
v -0.031250 0.687500 -6.796875
v -2.312500 -2.234375 -5.484375
v 2.328125 -2.203125 -5.484375
v -0.031250 0.687500 -6.796875
v -4.640625 1.906250 1.671875
v -3.750000 0.921875 4.406250
v -3.000000 -1.375000 1.859375
v -3.281250 3.281250 1.265625
v -3.031250 2.562500 2.578125
v -4.218750 -0.359375 0.437500
v -4.593750 4.031250 -1.218750
v -3.078125 6.578125 1.671875
v -2.718750 -1.406250 -0.234375
v -3.078125 6.750000 -1.875000
v -3.078125 6.578125 1.671875
v -3.031250 2.562500 2.578125
v -3.750000 0.921875 4.406250
v -1.968750 -0.968750 5.031250
v -2.734375 -2.484375 4.484375
v -1.968750 -0.968750 5.031250
v -2.734375 -2.484375 4.484375
v -2.312500 -2.234375 -5.484375
v -4.875000 0.781250 -2.703125
v -1.390625 -2.968750 -0.890625
v -3.015625 0.671875 -5.843750
v -4.093750 3.796875 -3.531250
v -1.390625 -2.968750 -0.890625
v 1.421875 -2.937500 -0.890625
v -2.718750 -1.406250 -0.234375
v 2.718750 -1.359375 -0.234375
v -1.390625 -2.968750 -0.890625
v 1.421875 -2.937500 -0.890625
# 124 vertices

vt 0.409200 0.156400
vt 0.373700 0.187600
vt 0.397000 0.087100
vt 0.307200 0.135100
vt 0.275600 0.201400
vt 0.261700 0.072700
vt 0.237300 0.091100
vt 0.196400 0.047700
vt 0.200700 0.127300
vt 0.166300 0.095100
vt 0.155200 0.129200
vt 0.357000 0.295600
vt 0.361500 0.266800
vt 0.269300 0.295600
vt 0.264700 0.266800
vt 0.313100 0.248200
vt 0.269000 0.231000
vt 0.292500 0.207600
vt 0.081500 0.247700
vt 0.033100 0.253500
vt 0.129300 0.283600
vt 0.077000 0.351200
vt 0.014400 0.320000
vt 0.005100 0.340900
vt 0.385900 0.150200
vt 0.307800 0.133300
vt 0.288900 0.042800
vt 0.262000 0.071700
vt 0.307400 0.201900
vt 0.248700 0.192900
vt 0.237800 0.089600
vt 0.196800 0.046500
vt 0.201200 0.125600
vt 0.166700 0.093700
vt 0.155500 0.128000
vt 0.333800 0.207600
vt 0.357400 0.231000
vt 0.151100 0.336600
vt 0.125800 0.382300
vt 0.077500 0.393900
vt 0.432700 0.062800
vt 0.411500 0.029000
vt 0.396200 0.076900
vt 0.297500 0.034800
vt 0.306900 0.005500
vt 0.029700 0.379600
vt 0.131400 0.050700
vt 0.151300 0.018600
vt 0.209200 0.012900
vt 0.223900 0.035100
vt 0.271700 0.015200
vt 0.256400 0.036300
vt 0.083800 0.093300
vt 0.083600 0.118600
vt 0.119300 0.143800
vt 0.154600 0.216000
vt 0.087000 0.196700
vt 0.087200 0.233600
vt 0.018400 0.214400
vt 0.192000 0.161900
vt 0.154600 0.218500
vt 0.246100 0.254200
vt 0.130800 0.255600
vt 0.215100 0.286200
vt 0.245700 0.255300
vt 0.154200 0.219600
vt 0.191700 0.163100
vt 0.054800 0.143700
vt 0.019700 0.128300
vt 0.008700 0.092200
vt 0.044100 0.049800
vt 0.084300 0.040200
vt 0.026400 0.016700
vt 0.054300 0.002200
vt 0.150200 0.017700
vt 0.115400 0.002800
vt 0.161300 0.347000
vt 0.174900 0.357400
vt 0.159600 0.381100
vt 0.162800 0.381900
vt 0.174600 0.383700
vt 0.168200 0.413600
vt 0.164700 0.397200
vt 0.152800 0.395400
vt 0.151200 0.407100
vt 0.146000 0.407000
vt 0.187800 0.359500
vt 0.211000 0.302800
vt 0.177900 0.320200
vt 0.195800 0.299900
vt 0.196100 0.323400
vt 0.200400 0.308100
vt 0.233400 0.322500
vt 0.234400 0.306900
vt 0.266900 0.311500
vt 0.234400 0.296200
vt 0.270700 0.303700
vt 0.255600 0.305000
vt 0.284400 0.325600
vt 0.294800 0.353700
vt 0.284400 0.362900
vt 0.293300 0.387800
vt 0.300300 0.402900
vt 0.284900 0.419500
vt 0.287800 0.403500
vt 0.280900 0.389100
vt 0.270700 0.363700
vt 0.259500 0.353500
vt 0.261200 0.344300
vt 0.232300 0.347200
vt 0.233300 0.339600
vt 0.203700 0.341400
vt 0.269300 0.327100
vt 0.303600 0.415000
vt 0.299300 0.414600
vt 0.203200 0.350700
# 116 texture coordinates

vn -0.086118 0.018479 -0.996114
vn 0.329649 0.552365 -0.765653
vn 0.436159 -0.696134 -0.570230
vn 0.953324 -0.297277 -0.052906
vn 0.938648 0.285492 -0.193480
vn 0.559677 -0.730653 0.391034
vn 0.946519 -0.273663 -0.170908
vn 0.645818 -0.763398 0.011936
vn 0.936193 0.285492 0.205029
vn 0.679762 0.285492 0.675587
vn 0.759599 0.332355 0.559062
vn -0.520437 -0.836989 0.169100
vn -0.700423 -0.713610 0.012946
vn 0.012066 -0.945184 -0.326316
vn -0.818910 -0.343949 0.459441
vn -0.353291 -0.622113 0.698685
vn -0.457761 0.423548 -0.781704
vn -0.056983 0.378411 -0.923882
vn -0.496882 0.704926 -0.506150
vn -0.975347 0.213933 -0.054129
vn -0.490836 -0.622113 -0.609964
vn -0.958743 -0.273663 -0.076940
vn -0.307997 -0.875117 0.373240
vn -0.943492 -0.297277 -0.146457
vn -0.937407 0.261793 0.229637
vn -0.667575 0.261793 0.697000
vn -0.745594 0.332355 0.577607
vn 0.370398 -0.622113 0.689769
vn 0.837219 -0.320710 0.442955
vn 0.343229 0.704926 -0.620704
vn -0.031771 0.510631 -0.859213
vn 0.488087 -0.823253 0.289872
vn -0.455654 0.631711 -0.627153
vn 0.535635 0.067708 0.841731
vn -0.515438 0.043107 0.855842
vn 0.000000 0.237935 0.971281
vn 0.428917 -0.030795 0.902819
vn 0.759985 0.510631 0.402092
vn 0.000000 0.650618 0.759405
vn 0.000000 0.969797 0.243914
vn -0.749848 0.489293 0.445331
vn -0.924957 0.285492 0.250898
vn 0.937933 0.309017 0.157451
vn -0.406112 -0.055411 0.912142
vn 0.000000 0.378411 0.925638
vn -0.182214 -0.128999 -0.974760
vn -0.584672 -0.320710 0.745187
vn -0.639172 -0.273663 -0.718727
vn -0.331422 -0.713610 0.617187
vn 0.721803 0.237935 0.649914
vn 0.000000 0.531659 0.846958
vn 0.425535 0.903247 -0.055356
vn -0.887221 -0.201882 0.414828
vn -0.163452 0.669131 0.724947
vn -0.559445 0.816197 -0.144376
vn 0.636366 0.771298 0.011761
vn 0.378993 0.285492 -0.880261
vn -0.575509 -0.747253 -0.332270
vn -0.298842 -0.850217 -0.433387
vn -0.459965 -0.730653 0.504558
vn -0.218426 -0.763398 0.607876
vn 0.208167 -0.521185 0.827667
vn 0.246520 -0.622113 0.743104
vn 0.706421 -0.366979 0.605224
vn 0.371336 -0.862929 -0.342729
vn 0.810449 -0.412356 -0.416094
vn -0.483168 -0.055411 -0.873772
vn 0.935968 -0.153392 -0.316915
vn 0.207876 0.018479 -0.977981
vn 0.661450 0.189801 0.725576
vn 0.663141 0.237935 -0.709670
vn 0.730415 -0.273663 0.625781
vn 0.780689 0.489293 0.388737
vn -0.309764 0.401101 0.862069
vn -0.942707 0.332355 -0.029044
vn -0.671815 -0.320710 0.667690
vn -0.994809 0.092268 0.042923
vn -0.539845 0.687237 0.486079
vn 0.389809 0.285492 0.875525
vn -0.333247 0.869089 0.365555
vn 0.190479 -0.500000 0.844818
vn -0.471577 -0.079994 0.878189
vn 0.842096 -0.201882 0.500117
vn -0.168779 0.975512 -0.141033
vn -0.297760 0.631711 0.715738
vn -0.044403 0.892401 0.449054
# 86 normals

g skull01
usemtl Material01
s 1
f 96/1/1 91/2/2 95/3/3
f 91/2/2 89/4/4 95/3/3
f 91/2/2 67/5/5 89/4/4
f 67/5/5 69/6/6 89/4/4
f 67/5/5 66/7/7 69/6/6
f 66/7/7 62/8/8 69/6/6
f 66/7/7 61/9/9 62/8/8
f 61/9/9 63/10/10 62/8/8
f 61/9/9 65/11/11 63/10/10
f 12/12/6 5/13/8 13/14/12
f 5/13/8 16/15/13 13/14/12
f 5/13/8 2/16/14 16/15/13
f 2/16/14 17/17/15 16/15/13
f 2/16/14 3/18/16 17/17/15
f 9/19/1 11/20/17 10/21/2
f 11/20/17 8/22/18 10/21/2
f 11/20/17 15/23/19 8/22/18
f 15/23/19 18/24/20 8/22/18
f 96/1/1 114/3/21 117/25/17
f 114/3/21 115/26/22 117/25/17
f 114/3/21 116/27/23 115/26/22
f 116/27/23 105/28/12 115/26/22
f 117/25/17 115/26/22 118/29/19
f 115/26/22 103/30/20 118/29/19
f 115/26/22 105/28/12 103/30/20
f 105/28/12 102/31/24 103/30/20
f 105/28/12 99/32/13 102/31/24
f 99/32/13 97/33/25 102/31/24
f 99/32/13 98/34/26 97/33/25
f 98/34/26 101/35/27 97/33/25
f 3/18/16 2/16/14 1/36/28
f 2/16/14 4/37/29 1/36/28
f 2/16/14 5/13/8 4/37/29
f 10/21/2 8/22/18 19/38/5
f 8/22/18 14/39/30 19/38/5
f 8/22/18 6/40/31 14/39/30
f 93/41/1 92/42/3 94/43/21
f 92/42/3 119/44/23 94/43/21
f 92/42/3 120/45/32 119/44/23
f 6/40/31 8/22/18 7/46/33
f 8/22/18 18/24/20 7/46/33
f 63/10/10 86/47/34 62/8/8
f 86/47/34 88/48/29 62/8/8
f 69/6/6 90/27/32 89/4/4
f 90/27/32 95/3/3 89/4/4
f 98/34/26 99/32/13 112/47/35
f 99/32/13 113/48/15 112/47/35
f 121/49/12 123/50/23 122/51/6
f 123/50/23 124/52/32 122/51/6
f 81/47/34 80/34/10 79/53/36
f 80/34/10 78/54/36 79/53/36
f 80/34/10 85/11/11 78/54/36
f 85/11/11 77/55/37 78/54/36
f 85/11/11 73/56/38 77/55/37
f 73/56/38 74/57/39 77/55/37
f 73/56/38 75/58/40 74/57/39
f 75/58/40 107/59/41 74/57/39
f 100/60/42 102/31/24 97/33/25
f 102/31/24 100/60/42 103/30/20
f 100/60/42 104/61/41 103/30/20
f 100/60/42 101/35/27 104/61/41
f 100/60/42 97/33/25 101/35/27
f 103/30/20 104/61/41 106/62/33
f 104/61/41 71/63/40 106/62/33
f 106/62/33 71/63/40 72/64/31
f 71/63/40 70/65/30 72/64/31
f 71/63/40 68/66/38 70/65/30
f 68/66/38 67/5/5 70/65/30
f 68/66/38 64/67/43 67/5/5
f 64/67/43 66/7/7 67/5/5
f 64/67/43 61/9/9 66/7/7
f 61/9/9 64/67/43 65/11/11
f 64/67/43 68/66/38 65/11/11
f 76/68/44 107/59/41 108/69/27
f 107/59/41 76/68/44 74/57/39
f 76/68/44 77/55/37 74/57/39
f 76/68/44 78/54/36 77/55/37
f 76/68/44 108/69/27 78/54/36
f 108/69/27 109/70/26 78/54/36
f 78/54/36 109/70/26 79/53/36
f 109/70/26 110/71/35 79/53/36
f 79/53/36 110/71/35 81/47/34
f 110/71/35 83/72/45 81/47/34
f 110/71/35 111/73/15 83/72/45
f 111/73/15 82/74/16 83/72/45
f 81/47/34 83/72/45 87/75/29
f 83/72/45 84/76/28 87/75/29
f 83/72/45 82/74/16 84/76/28
f 34/77/46 27/78/47 32/79/48
f 27/78/47 29/80/49 32/79/48
f 27/78/47 38/81/50 29/80/49
f 38/81/50 28/82/51 29/80/49
f 38/81/50 37/83/52 28/82/51
f 37/83/52 30/84/53 28/82/51
f 37/83/52 33/85/54 30/84/53
f 33/85/54 31/86/55 30/84/53
f 33/85/54 37/83/52 31/86/55
f 37/83/52 32/79/48 31/86/55
f 37/83/52 40/87/56 32/79/48
f 40/87/56 34/77/46 32/79/48
f 40/87/56 42/88/57 34/77/46
f 42/88/57 35/89/58 34/77/46
f 42/88/57 36/90/59 35/89/58
f 36/90/59 20/91/60 35/89/58
f 36/90/59 23/92/61 20/91/60
f 23/92/61 22/93/62 20/91/60
f 23/92/61 24/94/63 22/93/62
f 24/94/63 44/95/64 22/93/62
f 24/94/63 25/96/65 44/95/64
f 25/96/65 45/97/66 44/95/64
f 25/96/65 60/98/67 45/97/66
f 60/98/67 55/99/68 45/97/66
f 60/98/67 54/100/69 55/99/68
f 54/100/69 46/101/70 55/99/68
f 54/100/69 51/102/71 46/101/70
f 51/102/71 49/102/72 46/101/70
f 51/102/71 48/103/73 49/102/72
f 48/103/73 50/104/74 49/102/72
f 48/103/73 56/105/75 50/104/74
f 56/105/75 57/106/76 50/104/74
f 56/105/75 59/107/77 57/106/76
f 59/107/77 46/101/70 57/106/76
f 59/107/77 58/108/78 46/101/70
f 58/108/78 47/109/79 46/101/70
f 58/108/78 41/110/80 47/109/79
f 41/110/80 21/111/81 47/109/79
f 41/110/80 26/112/82 21/111/81
f 26/112/82 20/91/60 21/111/81
f 26/112/82 27/78/47 20/91/60
f 27/78/47 35/89/58 20/91/60
f 27/78/47 34/77/46 35/89/58
f 20/91/60 22/93/62 21/111/81
f 22/93/62 43/113/83 21/111/81
f 22/93/62 44/95/64 43/113/83
f 44/95/64 45/97/66 43/113/83
f 28/82/51 30/84/53 29/80/49
f 30/84/53 32/79/48 29/80/49
f 30/84/53 31/86/55 32/79/48
f 21/111/81 43/113/83 47/109/79
f 43/113/83 46/101/70 47/109/79
f 43/113/83 55/99/68 46/101/70
f 43/113/83 45/97/66 55/99/68
f 24/94/63 23/92/61 25/96/65
f 23/92/61 36/90/59 25/96/65
f 36/90/59 42/88/57 25/96/65
f 42/88/57 60/98/67 25/96/65
f 42/88/57 41/110/80 60/98/67
f 41/110/80 58/108/78 60/98/67
f 58/108/78 59/107/77 60/98/67
f 59/107/77 54/100/69 60/98/67
f 59/107/77 51/102/71 54/100/69
f 59/107/77 56/105/75 51/102/71
f 56/105/75 52/114/84 51/102/71
f 56/105/75 53/115/85 52/114/84
f 53/115/85 48/103/73 52/114/84
f 53/115/85 56/105/75 48/103/73
f 52/114/84 48/103/73 51/102/71
f 37/83/52 38/81/50 40/87/56
f 38/81/50 27/78/47 40/87/56
f 46/101/70 49/102/72 57/106/76
f 49/102/72 50/104/74 57/106/76
f 27/78/47 26/112/82 39/116/86
f 26/112/82 41/110/80 39/116/86
f 27/78/47 39/116/86 40/87/56
f 39/116/86 42/88/57 40/87/56
f 39/116/86 41/110/80 42/88/57
# 166 triangles in group

# 166 triangles total

