# Wavefront OBJ exported by MilkShape 3D

mtllib intestine.mtl

v 4.093750 -0.093750 -1.734375
v 3.984375 -1.906250 -0.687500
v 4.062500 -1.515625 0.125000
v 4.609375 0.062500 -0.187500
v 3.000000 -0.609375 0.390625
v 3.406250 0.437500 0.500000
v 2.656250 -0.640625 -0.406250
v 2.625000 0.390625 -0.796875
v 3.234375 -1.703125 -1.546875
v 3.296875 1.031250 -1.906250
v 2.359375 -2.859375 0.234375
v 2.468750 -1.562500 0.968750
v 1.828125 -0.859375 0.859375
v 1.593750 -0.859375 -0.015625
v 1.968750 -1.593750 -0.421875
v -0.484375 -3.343750 0.546875
v 0.515625 -2.515625 1.328125
v 0.671875 -1.859375 1.046875
v 0.609375 -1.859375 0.125000
v 0.468750 -2.515625 -0.140625
v -1.468750 -1.906250 0.218750
v -0.843750 -1.421875 1.734375
v -0.406250 -0.921875 1.359375
v -0.296875 -0.921875 -0.140625
v -0.578125 -1.437500 -0.687500
v -3.281250 -1.515625 -0.593750
v -2.984375 -1.125000 0.453125
v -1.890625 -0.593750 0.656250
v -1.562500 -0.609375 -0.187500
v -2.234375 -1.171875 -0.812500
v -3.484375 0.765625 -0.968750
v -3.187500 0.625000 0.234375
v -2.140625 0.421875 0.718750
v -1.765625 0.421875 -0.296875
v -2.343750 0.546875 -0.968750
v -1.906250 2.421875 -0.171875
v -2.218750 3.156250 1.390625
v -1.390625 1.593750 1.187500
v -0.843750 2.343750 -0.593750
v -1.718750 1.656250 -1.343750
v -0.812500 3.531250 0.500000
# 41 vertices

vt 0.786800 0.508500
vt 0.782600 0.551400
vt 0.744500 0.530700
vt 0.757400 0.520100
vt 0.807200 0.556300
vt 0.740800 0.474600
vt 0.821500 0.533000
vt 0.758500 0.464300
vt 0.789900 0.489900
vt 0.763300 0.491800
vt 0.817800 0.484100
vt 0.823600 0.507700
vt 0.864000 0.467400
vt 0.889600 0.476300
vt 0.861700 0.416300
vt 0.874700 0.414800
vt 0.870300 0.368700
vt 0.902300 0.350500
vt 0.847700 0.340400
vt 0.857200 0.308700
vt 0.808100 0.329700
vt 0.777300 0.280400
vt 0.774400 0.332500
vt 0.750200 0.302600
vt 0.810500 0.321400
vt 0.791300 0.304000
vt 0.847600 0.332100
vt 0.860800 0.295500
vt 0.891300 0.371700
vt 0.914400 0.350800
vt 0.870600 0.421800
vt 0.906100 0.409700
vt 0.890500 0.474900
vt 0.913100 0.464800
vt 0.832300 0.494800
vt 0.855100 0.527300
vt 0.819300 0.467800
vt 0.852500 0.456200
vt 0.848000 0.418200
vt 0.865200 0.377900
vt 0.842800 0.347600
# 41 texture coordinates

vn -0.020196 0.572735 0.819492
vn 0.736936 -0.128999 0.663540
vn 0.776163 0.189801 0.601288
vn 0.879250 0.261793 -0.397975
vn 0.646684 -0.730653 -0.218965
vn -0.119421 0.467658 -0.875805
vn -0.522480 -0.297277 -0.799150
vn -0.965106 0.261793 -0.005945
vn -0.861051 0.467658 -0.199721
vn -0.188200 0.801714 0.567305
vn -0.148177 0.739009 0.657198
vn 0.312239 -0.128999 0.941205
vn 0.272439 0.704926 0.654872
vn 0.240032 -0.177691 0.954364
vn 0.356647 0.786745 0.503821
vn -0.313860 -0.079994 0.946093
vn 0.290937 0.592758 0.750995
vn -0.519835 -0.249883 0.816903
vn 0.398362 -0.201882 0.894735
vn -0.726089 -0.030795 0.686911
vn 0.353804 -0.201882 0.913272
vn -0.416181 0.631711 0.654014
vn 0.978499 -0.201882 0.042219
vn -0.147819 0.816197 -0.558545
vn 0.082548 0.285492 -0.954820
vn -0.504655 0.650618 -0.567467
vn 0.279323 0.043107 -0.959229
vn -0.658937 0.261793 -0.705171
vn 0.182492 0.116773 -0.976248
vn -0.668388 -0.659925 -0.343158
vn 0.251771 -0.177691 -0.951334
vn -0.465438 -0.875117 -0.132429
vn -0.132324 -0.201882 -0.970430
vn -0.193405 -0.978148 -0.076299
vn -0.345588 -0.153392 -0.925765
vn 0.254092 -0.966718 0.029875
vn -0.492336 0.755383 -0.432438
vn 0.019838 0.843667 -0.536500
vn 0.483284 0.786745 -0.384017
vn 0.666819 0.650618 -0.363384
vn 0.979909 -0.153392 -0.127473
# 41 normals

g intestine01
usemtl Material03
s 1
f 5/1/1 3/2/2 4/3/3
f 3/2/2 1/4/4 4/3/3
f 3/2/2 2/5/5 1/4/4
f 2/5/5 10/6/6 1/4/4
f 2/5/5 9/7/7 10/6/6
f 9/7/7 8/8/8 10/6/6
f 9/7/7 7/9/9 8/8/8
f 7/9/9 6/10/10 8/8/8
f 7/9/9 5/1/1 6/10/10
f 5/1/1 4/3/3 6/10/10
f 8/8/8 6/10/10 10/6/6
f 6/10/10 1/4/4 10/6/6
f 6/10/10 4/3/3 1/4/4
f 5/1/1 13/11/11 3/2/2
f 13/11/11 12/12/12 3/2/2
f 13/11/11 18/13/13 12/12/12
f 18/13/13 17/14/14 12/12/12
f 18/13/13 23/15/15 17/14/14
f 23/15/15 22/16/16 17/14/14
f 23/15/15 28/17/17 22/16/16
f 28/17/17 27/18/18 22/16/16
f 28/17/17 33/19/19 27/18/18
f 33/19/19 32/20/20 27/18/18
f 33/19/19 38/21/21 32/20/20
f 38/21/21 37/22/22 32/20/20
f 38/21/21 39/23/23 37/22/22
f 39/23/23 41/24/24 37/22/22
f 39/23/23 40/25/25 41/24/24
f 40/25/25 36/26/26 41/24/24
f 40/25/25 35/27/27 36/26/26
f 35/27/27 31/28/28 36/26/26
f 35/27/27 30/29/29 31/28/28
f 30/29/29 26/30/30 31/28/28
f 30/29/29 25/31/31 26/30/30
f 25/31/31 21/32/32 26/30/30
f 25/31/31 20/33/33 21/32/32
f 20/33/33 16/34/34 21/32/32
f 20/33/33 15/35/35 16/34/34
f 15/35/35 11/36/36 16/34/34
f 15/35/35 9/7/7 11/36/36
f 9/7/7 2/5/5 11/36/36
f 3/2/2 12/12/12 2/5/5
f 12/12/12 11/36/36 2/5/5
f 12/12/12 17/14/14 11/36/36
f 17/14/14 16/34/34 11/36/36
f 17/14/14 22/16/16 16/34/34
f 22/16/16 21/32/32 16/34/34
f 22/16/16 27/18/18 21/32/32
f 27/18/18 26/30/30 21/32/32
f 27/18/18 32/20/20 26/30/30
f 32/20/20 31/28/28 26/30/30
f 32/20/20 37/22/22 31/28/28
f 37/22/22 36/26/26 31/28/28
f 37/22/22 41/24/24 36/26/26
f 9/7/7 15/35/35 7/9/9
f 15/35/35 14/37/37 7/9/9
f 15/35/35 20/33/33 14/37/37
f 20/33/33 19/38/38 14/37/37
f 20/33/33 25/31/31 19/38/38
f 25/31/31 24/39/39 19/38/38
f 25/31/31 30/29/29 24/39/39
f 30/29/29 29/40/40 24/39/39
f 30/29/29 35/27/27 29/40/40
f 35/27/27 34/41/41 29/40/40
f 35/27/27 40/25/25 34/41/41
f 40/25/25 39/23/23 34/41/41
f 7/9/9 14/37/37 5/1/1
f 14/37/37 13/11/11 5/1/1
f 14/37/37 19/38/38 13/11/11
f 19/38/38 18/13/13 13/11/11
f 19/38/38 24/39/39 18/13/13
f 24/39/39 23/15/15 18/13/13
f 24/39/39 29/40/40 23/15/15
f 29/40/40 28/17/17 23/15/15
f 29/40/40 34/41/41 28/17/17
f 34/41/41 33/19/19 28/17/17
f 34/41/41 39/23/23 33/19/19
f 39/23/23 38/21/21 33/19/19
# 78 triangles in group

# 78 triangles total

